<?xml version="1.0" encoding="UTF-8" standalone="no"?>
<!DOCTYPE svg PUBLIC "-//W3C//DTD SVG 1.1//EN" "http://www.w3.org/Graphics/SVG/1.1/DTD/svg11.dtd">
<svg xmlns="http://www.w3.org/2000/svg" version="1.1" viewBox="0.00 0.00 320.00 320.00">
<path fill="#FFFFFF" d="
  M 320.00 129.85
  L 320.00 320.00
  L 0.00 320.00
  L 0.00 100.25
  L 0.51 99.28
  Q 0.79 98.75 1.17 99.21
  Q 4.66 103.45 11.76 106.49
  Q 14.83 107.80 20.44 107.98
  Q 39.09 108.57 53.08 107.36
  Q 55.86 107.12 65.18 104.74
  Q 65.82 104.57 65.78 103.91
  Q 65.76 103.49 65.95 103.10
  Q 66.16 102.68 66.58 102.47
  C 69.47 101.08 73.61 101.04 76.76 101.01
  Q 80.44 100.98 83.69 99.66
  Q 91.37 96.54 95.76 91.62
  Q 98.56 88.49 102.91 86.93
  A 1.64 1.63 5.2 0 0 103.77 86.22
  L 107.46 79.83
  A 2.76 2.71 -86.8 0 1 108.69 78.71
  C 115.32 75.71 122.33 72.56 127.73 67.52
  Q 135.22 60.52 140.68 51.95
  Q 144.10 46.60 145.12 40.14
  Q 145.28 39.13 146.28 38.93
  C 151.69 37.87 151.90 42.81 152.78 46.36
  C 153.83 50.60 157.28 52.58 159.30 56.05
  Q 160.40 57.96 162.05 59.69
  Q 167.25 65.14 172.31 70.94
  Q 176.06 75.24 179.30 79.99
  Q 183.68 86.39 189.71 91.78
  Q 191.75 93.60 192.26 97.77
  Q 192.32 98.29 192.75 98.59
  C 193.07 98.82 193.38 98.97 193.66 99.27
  Q 199.39 105.63 202.95 108.08
  Q 207.22 111.01 218.41 116.31
  Q 219.87 117.00 221.36 117.30
  Q 227.05 118.44 233.84 120.05
  Q 238.41 121.13 242.29 123.27
  C 245.52 125.06 249.10 126.64 252.79 126.82
  Q 264.98 127.44 278.29 126.71
  Q 283.12 126.44 287.55 125.55
  C 292.79 124.50 300.50 122.61 305.35 125.40
  Q 309.89 128.02 317.49 128.26
  Q 319.24 128.32 320.00 129.85
  Z"
/>
</svg>
