<?xml version="1.0" encoding="UTF-8" standalone="no"?>
<!DOCTYPE svg PUBLIC "-//W3C//DTD SVG 1.1//EN" "http://www.w3.org/Graphics/SVG/1.1/DTD/svg11.dtd">
<svg xmlns="http://www.w3.org/2000/svg" version="1.1" viewBox="0.00 0.00 320.00 320.00">
<path fill="#FFFFFF" d="
  M 320.00 293.73
  L 320.00 320.00
  L 0.00 320.00
  L 0.00 275.50
  Q 0.20 273.82 1.76 274.13
  C 4.48 274.68 7.09 275.67 9.85 275.80
  Q 15.46 276.07 17.92 275.55
  Q 22.03 274.70 26.22 274.02
  Q 29.93 273.41 32.94 271.93
  Q 36.93 269.97 41.19 268.24
  C 42.60 267.67 44.94 266.12 45.80 264.85
  Q 47.14 262.88 48.39 260.95
  C 50.32 257.96 53.44 256.81 55.76 254.27
  Q 58.96 250.78 62.25 246.77
  C 64.35 244.21 67.79 244.52 70.52 242.98
  Q 80.37 237.44 85.36 228.41
  Q 85.64 227.90 86.04 228.32
  Q 89.71 232.15 92.87 235.98
  Q 93.75 237.06 93.82 238.58
  Q 94.02 242.94 94.95 247.63
  C 95.48 250.27 97.15 251.67 98.44 253.83
  Q 99.11 254.95 100.04 255.72
  Q 107.30 261.79 113.58 266.04
  C 116.56 268.05 116.57 272.05 119.67 274.01
  C 122.66 275.90 125.78 277.63 128.32 280.13
  C 130.50 282.28 133.11 283.59 135.06 286.03
  C 139.60 291.70 147.33 291.70 154.05 290.71
  Q 154.55 290.63 154.83 290.21
  C 155.69 288.91 156.58 287.77 158.11 287.22
  Q 161.92 285.84 164.86 281.86
  A 1.86 1.83 -76.1 0 1 166.05 281.13
  Q 170.83 280.33 174.15 284.17
  Q 176.90 287.34 179.69 290.50
  Q 180.90 291.87 182.68 292.27
  Q 186.73 293.17 190.79 292.93
  Q 193.98 292.75 197.39 292.48
  Q 202.46 292.07 206.42 296.18
  A 2.63 2.49 -9.7 0 0 207.35 296.80
  Q 213.34 299.15 217.41 299.74
  Q 221.50 300.34 227.73 300.02
  Q 229.34 299.94 230.79 300.78
  A 0.58 0.57 30.4 0 0 231.57 300.58
  Q 232.95 298.33 235.71 296.11
  Q 237.33 294.80 239.50 294.90
  Q 246.79 295.25 252.23 297.50
  C 254.79 298.56 257.58 296.86 259.77 295.60
  C 261.10 294.85 262.54 295.30 263.89 295.73
  C 269.43 297.47 272.02 292.74 274.22 288.75
  C 275.95 285.61 278.86 285.30 282.00 284.71
  Q 282.58 284.60 282.98 284.16
  Q 284.96 281.98 287.45 280.18
  C 290.79 277.78 292.97 274.53 295.32 271.25
  Q 296.22 270.00 296.64 271.48
  C 297.49 274.50 298.67 276.84 301.06 279.05
  Q 305.76 283.40 310.25 287.23
  Q 314.72 291.04 320.00 293.73
  Z"
/>
</svg>
