<?xml version="1.0" encoding="UTF-8" standalone="no"?>
<!DOCTYPE svg PUBLIC "-//W3C//DTD SVG 1.1//EN" "http://www.w3.org/Graphics/SVG/1.1/DTD/svg11.dtd">
<svg xmlns="http://www.w3.org/2000/svg" version="1.1" viewBox="0.00 0.00 320.00 320.00">
<path fill="#FFFFFF" d="
  M 320.00 212.05
  L 320.00 320.00
  L 0.00 320.00
  L 0.00 214.25
  Q 0.33 213.40 0.17 212.01
  A 1.02 1.02 0.0 0 1 1.23 210.87
  Q 9.38 211.32 16.85 212.46
  Q 17.61 212.58 18.14 213.15
  Q 18.52 213.54 19.04 213.67
  C 24.96 215.12 34.22 216.18 39.95 213.21
  Q 42.89 211.68 45.83 211.11
  Q 49.35 210.44 52.38 208.91
  C 55.37 207.40 58.53 206.48 61.22 204.39
  Q 64.29 202.01 66.69 198.15
  C 68.00 196.06 70.32 196.48 71.49 198.35
  Q 73.76 201.98 76.95 203.89
  C 80.97 206.29 82.69 209.57 87.79 209.89
  Q 94.48 210.31 101.12 210.93
  C 103.11 211.11 105.15 210.84 107.12 211.16
  Q 107.54 211.23 107.80 211.56
  Q 110.60 215.02 115.14 220.25
  Q 117.89 223.41 121.02 225.17
  Q 128.44 229.36 136.55 233.92
  C 141.78 236.87 145.87 240.17 150.04 235.33
  Q 151.79 233.30 153.40 232.12
  Q 158.17 228.63 162.44 224.70
  C 163.44 223.78 165.16 222.82 166.48 222.44
  Q 178.64 218.92 188.77 224.61
  C 196.34 228.87 201.53 223.48 207.21 219.55
  A 1.63 1.58 -6.8 0 0 207.78 218.85
  C 209.05 215.91 211.95 215.38 213.88 213.01
  C 218.97 206.78 223.67 204.41 231.79 203.79
  A 2.03 2.03 0.0 0 0 232.82 203.40
  Q 234.71 201.97 236.26 200.21
  Q 240.35 195.55 244.18 190.92
  C 246.81 187.73 249.77 185.66 251.99 181.81
  C 255.56 175.61 254.05 167.42 256.17 160.62
  Q 256.81 158.56 257.91 160.41
  Q 259.57 163.22 261.00 166.06
  C 262.49 169.04 264.82 171.06 267.23 173.28
  Q 268.67 174.60 269.49 176.30
  Q 272.76 183.07 275.55 189.89
  Q 276.50 192.22 278.54 193.51
  Q 286.13 198.31 301.84 205.18
  Q 305.50 206.78 308.87 206.96
  Q 311.97 207.12 314.08 208.00
  Q 317.52 209.43 320.00 212.05
  Z"
/>
</svg>
