<?xml version="1.0" encoding="UTF-8"?>
<svg version="1.1" xmlns="http://www.w3.org/2000/svg" width="320" height="320">
<path d="M0 0 C2.375 -0.125 2.375 -0.125 5 0 C7.2048092 2.2048092 7.49784608 3.31124845 8.3125 6.25 C9.33488369 9.52795182 10.40343876 11.80704415 12.6875 14.375 C15 17 15 17 15 20 C15.57234375 20.2371875 16.1446875 20.474375 16.734375 20.71875 C19.4879292 22.27593238 21.16795634 24.12492797 23.25 26.5 C23.95640625 27.2940625 24.6628125 28.088125 25.390625 28.90625 C27 31 27 31 27 33 C27.639375 33.2475 28.27875 33.495 28.9375 33.75 C31 35 31 35 31.75 37.125 C31.8325 37.74375 31.915 38.3625 32 39 C32.66 39 33.32 39 34 39 C34.515625 40.03125 35.03125 41.0625 35.5625 42.125 C37.62253467 45.77251658 40.12927328 48.08738272 43.4140625 50.640625 C45 52 45 52 47 55 C47.125 57.6875 47.125 57.6875 47 60 C48.32 60.66 49.64 61.32 51 62 C51 62.66 51 63.32 51 64 C51.598125 64.268125 52.19625 64.53625 52.8125 64.8125 C55 66 55 66 56.20703125 67.3515625 C58.76879899 69.70682608 61.77034607 71.06180969 64.875 72.5625 C65.79345703 73.01786133 65.79345703 73.01786133 66.73046875 73.48242188 C73.50342212 76.81088611 79.943302 78.77133718 87.32226562 80.23632812 C91.54489146 81.15728091 94.76854156 82.39430664 98.48828125 84.609375 C104.95153362 87.98711443 111.63436463 87.64458562 118.73144531 87.48706055 C120.99600721 87.43758723 123.25838287 87.42556244 125.5234375 87.41992188 C132.49510919 87.36479983 139.19117906 87.04901819 146.00976562 85.4519043 C153.01643076 83.860965 158.77153263 84.55446486 165 88 C168.3 88.66 171.6 89.32 175 90 C175 153.03 175 216.06 175 281 C69.4 281 -36.2 281 -145 281 C-145 208.07 -145 135.14 -145 60 C-144.34 60 -143.68 60 -143 60 C-141.66666667 61.33333333 -140.33333333 62.66666667 -139 64 C-133.23886381 67.88876693 -128.44579871 68.15824979 -121.61328125 68.16796875 C-120.7968364 68.17129715 -119.98039154 68.17462555 -119.13920593 68.17805481 C-117.41190146 68.18311164 -115.68458725 68.18546352 -113.95727539 68.18530273 C-111.33918728 68.18747783 -108.72152861 68.20561503 -106.10351562 68.22460938 C-104.41927226 68.22754599 -102.73502691 68.22952899 -101.05078125 68.23046875 C-100.27857742 68.23765427 -99.5063736 68.24483978 -98.71076965 68.25224304 C-93.94279467 68.23261064 -89.65913619 67.62786963 -85.04118347 66.42939758 C-83 66 -83 66 -79 66 C-79 65.01 -79 64.02 -79 63 C-75.79883431 61.93294477 -73.36258253 61.89737288 -70 61.8125 C-60.2240863 61.12513107 -53.70871723 56.90039487 -47 50 C-45.4221875 49.505 -45.4221875 49.505 -43.8125 49 C-40.80112521 48.28345898 -40.80112521 48.28345898 -39.6875 45.5625 C-39.460625 44.716875 -39.23375 43.87125 -39 43 C-38 40 -38 40 -34.6484375 38.16796875 C-33.22692181 37.5014552 -31.80225042 36.84164326 -30.375 36.1875 C-24.57554375 33.40500984 -19.41390201 30.79008684 -15 26 C-14.484375 25.44570312 -13.96875 24.89140625 -13.4375 24.3203125 C-11.89773393 22.58807567 -10.43843845 20.81697489 -9 19 C-8.54496094 18.4328125 -8.08992187 17.865625 -7.62109375 17.28125 C-3.59538559 11.99375271 -1.53795329 6.42237902 0 0 Z " fill="#787FCF" transform="translate(145,39)"/>
</svg>
