<?xml version="1.0" encoding="UTF-8" standalone="no"?>
<!DOCTYPE svg PUBLIC "-//W3C//DTD SVG 1.1//EN" "http://www.w3.org/Graphics/SVG/1.1/DTD/svg11.dtd">
<svg xmlns="http://www.w3.org/2000/svg" version="1.1" viewBox="0.00 0.00 320.00 320.00">
<path fill="#FFFFFF" d="
  M 320.00 180.32
  L 320.00 320.00
  L 0.00 320.00
  L 0.00 131.98
  C 3.90 134.98 6.52 139.78 11.90 140.02
  C 16.58 140.23 21.20 140.23 25.70 138.45
  Q 30.50 136.56 36.15 135.68
  Q 36.62 135.60 37.03 135.85
  C 38.26 136.59 39.33 137.43 40.81 137.67
  Q 45.68 138.46 50.04 137.55
  Q 53.49 136.82 56.81 136.08
  C 62.70 134.76 67.00 132.02 70.98 127.55
  A 0.76 0.76 0.0 0 1 71.88 127.37
  Q 75.15 128.98 78.79 129.14
  A 0.83 0.83 0.0 0 0 79.62 128.57
  L 80.15 126.96
  Q 80.29 126.53 80.72 126.36
  C 81.44 126.09 82.34 125.71 82.82 125.08
  Q 88.03 118.15 90.06 111.21
  C 91.12 107.56 92.75 105.01 95.86 102.87
  A 0.53 0.53 0.0 0 1 96.66 103.15
  Q 98.02 107.61 101.15 110.96
  Q 101.54 111.37 101.65 111.93
  Q 102.56 116.53 105.23 118.65
  Q 111.03 123.27 120.05 126.69
  C 124.02 128.20 129.33 131.72 131.76 135.18
  Q 133.78 138.07 136.57 140.83
  C 138.12 142.37 140.70 142.53 142.66 141.89
  C 145.48 140.97 147.79 137.58 150.00 135.47
  Q 150.45 135.04 150.94 135.43
  C 155.82 139.38 161.29 144.76 167.94 144.94
  Q 173.91 145.09 180.08 146.38
  C 183.46 147.08 186.92 148.26 188.96 151.24
  Q 190.60 153.63 193.16 154.44
  C 196.41 155.48 204.97 157.52 207.79 154.73
  C 209.88 152.67 212.37 151.55 215.39 152.29
  Q 221.93 153.89 228.43 154.04
  Q 234.80 154.18 240.41 150.39
  A 2.23 2.22 57.4 0 1 243.55 151.09
  Q 245.43 154.21 248.69 155.12
  Q 254.40 156.71 260.86 158.15
  Q 262.20 158.44 263.40 159.22
  C 264.62 160.01 266.04 159.83 267.28 160.64
  Q 276.89 166.92 282.17 174.92
  C 285.25 179.59 292.44 185.12 298.63 182.21
  Q 302.38 180.46 306.70 179.77
  A 3.32 3.27 20.6 0 0 308.25 179.08
  Q 309.53 178.03 311.05 177.31
  Q 318.15 173.98 320.00 180.32
  Z"
/>
</svg>
