<?xml version="1.0" encoding="UTF-8" standalone="no"?>
<!DOCTYPE svg PUBLIC "-//W3C//DTD SVG 1.1//EN" "http://www.w3.org/Graphics/SVG/1.1/DTD/svg11.dtd">
<svg xmlns="http://www.w3.org/2000/svg" version="1.1" viewBox="0.00 0.00 320.00 320.00">
<path fill="#0a0e47" d="
  M 91.97 28.51
  L 92.00 42.95
  Q 92.00 43.39 91.56 43.40
  L 88.01 43.47
  Q 87.54 43.48 87.54 43.01
  L 87.54 16.86
  A 0.61 0.60 90.0 0 1 88.14 16.25
  L 105.97 16.25
  Q 106.41 16.25 106.74 16.52
  C 109.09 18.46 110.80 20.15 110.01 23.61
  A 1.21 1.17 77.1 0 1 109.63 24.24
  Q 109.17 24.64 109.24 25.21
  Q 109.31 25.80 108.77 26.05
  C 107.02 26.86 105.73 28.01 103.67 28.01
  Q 97.97 28.00 92.54 27.95
  Q 91.96 27.94 91.97 28.51
  Z
  M 91.92 20.66
  L 91.92 23.62
  A 0.40 0.40 0.0 0 0 92.32 24.02
  L 103.56 24.04
  A 1.94 1.48 0.1 0 0 105.50 22.56
  L 105.50 21.76
  A 1.94 1.48 0.1 0 0 103.56 20.28
  L 92.32 20.26
  A 0.40 0.40 0.0 0 0 91.92 20.66
  Z"
/>
<path fill="#0a0e47" d="
  M 119.02 39.10
  L 119.02 20.63
  A 0.34 0.34 0.0 0 0 118.68 20.29
  L 114.86 20.29
  A 0.34 0.34 0.0 0 1 114.52 19.95
  L 114.52 16.58
  A 0.34 0.34 0.0 0 1 114.86 16.24
  L 127.89 16.26
  A 0.34 0.34 0.0 0 1 128.23 16.60
  L 128.26 19.94
  A 0.34 0.34 0.0 0 1 127.92 20.28
  L 124.09 20.29
  A 0.34 0.34 0.0 0 0 123.75 20.63
  L 123.75 39.09
  A 0.34 0.34 0.0 0 0 124.09 39.43
  L 127.90 39.46
  A 0.34 0.34 0.0 0 1 128.24 39.80
  L 128.24 43.08
  A 0.34 0.34 0.0 0 1 127.90 43.42
  L 114.88 43.46
  A 0.34 0.34 0.0 0 1 114.54 43.12
  L 114.51 39.76
  A 0.34 0.34 0.0 0 1 114.85 39.42
  L 118.68 39.44
  A 0.34 0.34 0.0 0 0 119.02 39.10
  Z"
/>
<path fill="#0a0e47" d="
  M 149.29 42.50
  L 148.98 42.95
  Q 148.64 43.43 148.05 43.44
  Q 143.26 43.50 138.65 43.40
  Q 136.11 43.35 134.06 42.15
  Q 133.53 41.84 133.49 41.23
  Q 133.44 40.49 132.94 39.96
  Q 132.65 39.66 132.65 39.25
  L 132.65 20.99
  Q 132.65 20.54 133.03 20.31
  Q 133.86 19.80 134.14 18.89
  A 1.54 1.53 81.8 0 1 134.78 18.03
  C 136.03 17.22 137.45 16.20 139.01 16.22
  Q 144.75 16.28 150.46 16.24
  C 151.72 16.23 152.64 16.96 153.69 17.56
  Q 154.19 17.85 154.31 18.42
  C 154.56 19.72 155.31 20.55 155.30 21.89
  Q 155.26 28.81 155.27 35.40
  A 1.49 1.47 66.9 0 1 154.85 36.46
  Q 153.99 37.35 153.71 38.46
  Q 153.48 39.40 154.43 39.39
  Q 155.28 39.37 155.27 40.22
  L 155.27 42.70
  Q 155.27 43.42 154.55 43.43
  L 150.76 43.48
  Q 150.18 43.48 150.11 42.91
  Q 150.09 42.76 150.05 42.63
  Q 149.80 41.79 149.29 42.50
  Z
  M 142.20 36.24
  L 142.26 34.49
  Q 142.28 34.02 142.74 33.89
  Q 145.01 33.27 147.36 33.60
  A 1.16 1.15 -10.5 0 1 148.21 34.18
  Q 148.83 35.26 150.16 35.15
  Q 150.79 35.09 150.79 34.46
  L 150.79 20.91
  Q 150.79 20.28 150.16 20.29
  L 138.26 20.31
  A 1.00 1.00 0.0 0 0 137.26 21.31
  L 137.25 38.85
  A 0.60 0.59 -0.0 0 0 137.85 39.44
  L 145.59 39.40
  Q 146.39 39.39 145.79 38.86
  L 143.45 36.78
  Q 143.30 36.65 143.11 36.62
  Q 142.96 36.60 142.81 36.67
  A 0.45 0.44 79.5 0 1 142.20 36.24
  Z"
/>
<path fill="#0a0e47" d="
  M 177.81 38.76
  L 177.79 16.74
  Q 177.79 16.27 178.26 16.27
  L 181.75 16.24
  Q 182.25 16.24 182.25 16.75
  L 182.25 38.98
  A 4.47 4.47 0.0 0 1 177.77 43.45
  L 164.23 43.45
  A 4.43 4.43 0.0 0 1 159.81 39.02
  L 159.81 16.61
  Q 159.81 16.25 160.17 16.25
  L 164.03 16.26
  Q 164.40 16.26 164.39 16.62
  L 164.38 38.78
  Q 164.38 39.43 165.03 39.43
  L 177.15 39.42
  Q 177.81 39.42 177.81 38.76
  Z"
/>
<path fill="#0a0e47" d="
  M 191.86 24.05
  L 200.12 24.04
  A 0.38 0.38 0.0 0 1 200.50 24.42
  L 200.48 27.64
  A 0.38 0.38 0.0 0 1 200.10 28.02
  L 191.88 27.95
  A 0.38 0.38 0.0 0 0 191.50 28.33
  L 191.50 39.05
  A 0.38 0.38 0.0 0 0 191.88 39.43
  L 209.02 39.42
  A 0.38 0.38 0.0 0 1 209.40 39.80
  L 209.38 43.07
  A 0.38 0.38 0.0 0 1 209.00 43.45
  L 187.38 43.45
  A 0.38 0.38 0.0 0 1 187.00 43.07
  L 187.00 16.63
  A 0.38 0.38 0.0 0 1 187.38 16.25
  L 209.00 16.25
  A 0.38 0.38 0.0 0 1 209.38 16.63
  L 209.40 19.91
  A 0.38 0.38 0.0 0 1 209.02 20.29
  L 191.89 20.30
  A 0.38 0.38 0.0 0 0 191.52 20.67
  L 191.48 23.66
  A 0.38 0.38 0.0 0 0 191.86 24.05
  Z"
/>
</svg>
